<svg xmlns="http://www.w3.org/2000/svg" class="img-fluid" id="outputsvg" width="100%" viewBox="0 0 21620 3000"><g id="l2KqmTFOLHaRrPeUtdkQrB5" fill="#ff8800" style="transform: none;"><g style="transform: none;"><path id="p7v8TfO9S" d="M460 2483 l-53 -97 11 -66 c24 -139 51 -287 60 -330 6 -25 20 -101 32 -170 13 -69 29 -156 37 -195 8 -38 19 -101 24 -140 5 -38 14 -80 19 -93 l10 -22 282 2 c276 3 283 3 281 23 -8 63 -25 168 -37 225 -29 132 -63 333 -59 345 2 6 58 9 135 9 l133 -2 17 -58 c9 -33 17 -73 17 -90 1 -16 6 -35 13 -42 9 -9 86 -12 285 -12 312 0 294 -6 273 88 -16 76 -46 236 -64 347 -26 152 -36 174 -126 279 l-83 96 -577 0 -576 0 -54 -97z"/><path id="pRQvsPKER" d="M1963 2558 c11 -41 26 -123 87 -458 12 -63 28 -149 35 -190 53 -282 85 -459 120 -655 9 -49 22 -124 30 -165 8 -41 24 -127 36 -190 12 -63 28 -126 35 -140 8 -14 49 -62 91 -108 l78 -83 565 1 c311 0 571 0 577 0 7 0 35 46 63 103 l50 102 -14 80 c-8 44 -24 132 -36 195 -42 221 -61 325 -71 390 -5 35 -16 94 -23 130 -25 118 -49 244 -56 302 -4 32 -15 88 -23 125 -8 38 -25 124 -37 193 -12 69 -31 164 -41 212 -10 48 -19 97 -19 110 0 13 -3 33 -6 46 l-6 22 -284 0 c-160 0 -285 -4 -288 -9 -4 -5 5 -67 19 -138 48 -240 64 -328 70 -368 4 -22 9 -50 12 -62 5 -23 5 -23 -129 -23 -140 0 -158 5 -158 45 0 11 -6 52 -14 90 -20 93 -45 231 -61 330 -7 44 -18 92 -24 108 l-11 27 -286 0 -286 0 5 -22z m1052 -1010 c3 -13 9 -50 14 -83 5 -33 17 -105 27 -160 10 -56 15 -108 11 -118 -6 -15 -23 -17 -136 -17 l-131 0 -5 28 c-3 15 -10 43 -15 62 -5 19 -14 71 -21 115 -6 44 -17 100 -24 125 -7 25 -10 51 -8 58 4 9 41 12 144 12 136 0 139 -1 144 -22z"/><path id="pi8VYnYo1" d="M3565 2571 c-3 -5 0 -31 6 -58 10 -47 34 -174 67 -363 l17 -95 429 -5 429 -5 19 -85 c10 -47 16 -91 13 -97 -3 -10 -88 -13 -357 -15 l-353 -3 -52 -96 -52 -95 20 -115 c11 -63 22 -120 24 -127 3 -7 9 -43 15 -80 6 -37 17 -98 25 -137 8 -38 23 -119 35 -180 11 -60 29 -155 39 -210 11 -55 22 -123 26 -152 12 -90 -7 -85 310 -83 154 0 280 2 281 3 1 1 -2 22 -6 47 -5 25 -14 72 -19 105 -17 98 -56 303 -90 475 -12 58 -21 108 -21 113 0 4 60 7 134 7 99 0 136 -3 145 -13 6 -8 15 -47 21 -88 5 -41 17 -105 25 -144 8 -38 24 -122 35 -185 12 -63 30 -161 42 -217 l21 -103 283 0 c155 0 285 4 288 8 3 5 -3 44 -13 88 -10 43 -24 111 -30 149 -7 39 -21 115 -32 170 -10 55 -26 143 -34 195 -9 52 -20 109 -25 125 -5 17 -14 65 -20 109 -5 43 -12 82 -15 86 -3 5 -12 48 -20 97 -13 82 -22 131 -75 418 -11 61 -27 153 -35 205 -23 140 -30 156 -122 263 l-85 97 -643 0 c-389 0 -646 -4 -650 -9z"/><path id="p14N4dQxY4" d="M5166 2572 c-2 -4 4 -55 15 -112 11 -58 24 -132 29 -165 6 -33 17 -91 25 -130 20 -100 53 -273 60 -320 3 -22 12 -71 20 -110 8 -38 23 -119 34 -180 11 -60 30 -159 41 -220 26 -138 66 -358 90 -495 41 -228 47 -261 52 -265 5 -5 1289 -8 1293 -3 1 2 26 47 55 101 l53 99 -12 51 c-15 71 -40 204 -56 307 -8 47 -19 101 -25 120 -5 19 -10 48 -10 65 0 41 -27 81 -117 176 l-78 81 54 100 c59 112 58 94 21 288 -53 280 -61 320 -75 400 -8 47 -20 114 -28 150 l-14 65 -286 3 c-249 2 -287 0 -287 -13 0 -8 7 -47 15 -87 32 -157 46 -236 56 -297 5 -36 16 -92 25 -124 9 -35 12 -63 6 -69 -5 -5 -69 -7 -143 -6 l-134 3 -7 35 c-4 19 -16 91 -28 160 -12 69 -30 166 -41 215 -10 50 -21 111 -24 138 l-6 47 -284 0 c-156 0 -286 -3 -289 -8z m1074 -1204 c0 -2 9 -43 19 -93 10 -49 17 -93 14 -97 -2 -5 -65 -8 -138 -8 -131 0 -135 1 -140 23 -8 34 -35 168 -35 173 0 4 280 6 280 2z"/><path id="p5YrKSvr3" d="M6898 2563 c-8 -10 -34 -54 -57 -97 -36 -65 -42 -85 -37 -115 11 -68 35 -206 55 -316 19 -103 34 -182 81 -445 11 -58 29 -154 40 -215 20 -104 28 -154 64 -355 43 -241 46 -250 101 -310 27 -31 69 -77 92 -103 l42 -47 563 0 c310 0 569 4 576 8 7 5 33 49 58 98 45 87 46 90 40 159 -4 38 -13 94 -20 125 -8 30 -17 80 -21 110 -3 30 -10 69 -15 85 -5 17 -16 73 -25 125 -8 52 -24 142 -35 200 -11 58 -27 148 -35 200 -8 52 -19 109 -24 125 -5 17 -12 53 -15 80 -3 28 -12 82 -20 120 -39 188 -55 275 -61 324 -8 58 -20 75 -139 199 l-60 62 -567 0 c-527 0 -567 -1 -581 -17z m837 -603 c3 -8 9 -42 14 -75 8 -59 29 -173 56 -310 33 -168 59 -323 59 -360 l1 -40 -132 -3 -132 -3 -7 28 c-3 15 -12 51 -19 78 -7 28 -16 75 -20 105 -4 30 -11 72 -16 92 -5 20 -16 76 -23 125 -16 101 -41 235 -57 309 -7 29 -9 56 -6 60 3 5 66 9 141 9 112 0 137 -3 141 -15z"/><path id="phGrbJicv" d="M8360 2565 c0 -9 6 -48 14 -88 17 -87 50 -259 71 -381 26 -142 -29 -127 456 -124 l420 3 14 -50 c8 -27 16 -70 17 -95 l3 -45 -353 -5 -353 -5 -50 -92 c-56 -107 -59 -130 -30 -262 11 -47 29 -140 41 -206 43 -238 62 -341 72 -393 8 -45 20 -65 90 -145 45 -50 86 -95 92 -99 6 -4 300 -8 654 -8 l642 0 0 23 c0 12 -6 51 -14 87 -19 85 -45 225 -61 325 -7 44 -18 99 -24 123 l-12 42 -424 0 -423 0 -15 47 c-9 27 -18 72 -21 100 l-5 53 392 2 392 3 26 50 27 50 -15 80 c-8 44 -23 121 -33 170 -23 112 -38 197 -55 300 -7 44 -17 98 -23 120 -6 22 -13 65 -17 95 -15 123 -27 146 -140 268 l-67 72 -644 0 c-574 0 -644 -2 -644 -15z"/><path id="pIFyFHrq2" d="M9961 2563 c0 -10 6 -49 14 -88 7 -38 19 -99 25 -135 7 -36 20 -108 30 -160 10 -52 28 -149 40 -215 12 -66 30 -165 41 -220 10 -55 28 -152 39 -215 11 -63 27 -149 35 -190 17 -90 49 -265 75 -415 11 -60 26 -141 34 -180 8 -38 18 -91 21 -117 3 -26 11 -50 16 -54 10 -6 560 -6 567 0 2 2 -4 44 -13 93 -9 48 -23 122 -30 163 -8 41 -23 125 -34 185 -25 133 -61 337 -61 348 0 4 63 7 140 7 137 0 140 0 144 -22 16 -87 49 -271 66 -368 12 -63 29 -162 40 -220 10 -58 22 -122 25 -142 3 -21 10 -40 15 -43 10 -6 560 -8 566 -2 4 4 -17 130 -57 342 -10 55 -23 127 -29 160 -5 33 -14 83 -20 110 -6 28 -15 79 -20 115 -6 36 -17 97 -25 135 -23 112 -46 235 -56 300 -5 33 -15 92 -23 130 -29 138 -49 241 -61 315 -20 118 -43 239 -59 315 -9 39 -16 73 -16 78 0 4 -128 7 -285 7 l-285 0 0 -24 c0 -13 6 -54 14 -92 13 -64 23 -113 77 -399 10 -55 25 -136 34 -181 8 -45 15 -86 15 -92 0 -9 -41 -12 -140 -12 -137 0 -140 0 -144 23 -2 12 -14 78 -26 147 -13 69 -29 157 -37 195 -8 39 -18 97 -22 130 -5 33 -15 92 -24 130 -9 39 -19 93 -24 120 l-8 50 -287 3 c-270 2 -288 1 -287 -15z"/><path id="pXAHL08yH" d="M11677 2563 c-8 -10 -34 -57 -57 -104 l-41 -86 20 -99 c10 -54 29 -153 41 -219 50 -286 61 -344 75 -415 8 -41 24 -127 35 -190 12 -63 28 -151 37 -195 9 -44 18 -93 20 -110 2 -16 13 -75 23 -130 10 -55 23 -125 29 -155 15 -85 22 -98 116 -203 l87 -97 562 0 c434 0 566 3 579 13 25 19 107 182 107 213 0 15 -7 53 -14 83 -14 53 -31 146 -61 329 -8 45 -17 92 -20 103 -4 11 -13 57 -20 102 -8 45 -23 132 -34 192 -11 61 -30 162 -41 225 -12 63 -30 162 -41 220 -11 58 -27 146 -34 197 -8 50 -21 107 -28 125 -8 18 -52 75 -97 126 l-83 92 -572 0 c-532 0 -573 -1 -588 -17z m831 -597 c6 -3 17 -48 26 -98 9 -51 21 -113 26 -138 5 -25 23 -124 40 -220 17 -96 38 -208 46 -248 8 -40 12 -77 9 -83 -4 -5 -64 -9 -135 -9 l-130 0 -14 33 c-7 19 -18 67 -24 108 -6 41 -18 108 -26 149 -8 41 -24 129 -36 195 -12 66 -28 148 -36 182 -14 60 -18 125 -10 134 7 6 253 2 264 -5z"/><path id="phGWy7Dc6" d="M13156 2572 c-2 -4 4 -46 14 -92 10 -47 28 -139 40 -205 12 -66 30 -165 40 -220 11 -55 28 -149 40 -210 29 -159 58 -315 80 -430 10 -55 28 -152 39 -215 12 -63 33 -178 47 -255 14 -77 34 -189 45 -249 11 -60 24 -115 30 -123 9 -11 126 -13 640 -13 726 0 642 -14 709 120 43 86 48 119 26 196 -8 27 -17 78 -21 112 -3 35 -10 75 -15 88 -6 14 -16 66 -24 117 -15 98 -29 172 -52 277 -7 36 -18 98 -24 139 -20 141 -32 167 -128 274 l-88 98 -352 -1 -352 0 -11 26 c-9 25 -29 128 -65 339 -7 44 -18 98 -23 120 -6 22 -13 57 -16 78 l-6 37 -284 0 c-156 0 -286 -3 -289 -8z m1098 -1289 c10 -46 16 -90 12 -98 -5 -13 -26 -15 -137 -13 l-132 3 -12 36 c-7 19 -16 63 -20 97 l-7 63 138 -3 139 -3 19 -82z"/><path id="poAaWH9Vr" d="M14764 2528 c4 -29 15 -96 25 -148 21 -107 58 -306 66 -362 3 -20 13 -39 21 -42 9 -3 136 -6 284 -6 197 0 269 3 272 12 5 15 -7 103 -26 193 -24 113 -48 245 -57 315 -5 36 -11 71 -14 78 -3 9 -71 12 -291 12 l-287 0 7 -52z"/><path id="p15EQjVNjQ" d="M15616 2538 c-83 -146 -87 -163 -62 -283 8 -38 24 -119 35 -180 11 -60 29 -157 40 -215 11 -58 22 -123 26 -145 3 -22 12 -69 19 -105 15 -69 43 -220 76 -410 38 -212 60 -335 70 -383 8 -40 25 -66 97 -148 47 -54 93 -99 102 -99 9 0 268 0 576 0 430 0 562 3 571 13 7 6 33 53 59 103 l47 92 -20 88 c-28 126 -53 258 -63 333 -5 36 -16 89 -24 118 l-16 53 -285 0 -286 0 5 -27 c2 -16 10 -54 17 -85 20 -89 21 -88 -129 -88 l-129 0 -16 47 c-9 26 -16 60 -16 77 0 17 -7 58 -15 91 -8 33 -19 92 -25 130 -5 39 -17 102 -24 140 -8 39 -25 118 -36 176 -12 58 -20 114 -18 125 3 18 13 19 136 19 l133 0 14 -49 c8 -27 15 -60 15 -72 0 -13 4 -34 10 -49 l10 -25 282 2 283 3 -3 40 c-2 22 -9 63 -17 90 -7 28 -18 82 -24 120 -5 39 -17 102 -25 140 -9 39 -16 84 -16 100 -1 57 -43 133 -123 220 l-79 85 -573 0 -574 0 -25 -42z"/><path id="p15ce1QOo7" d="M17227 2557 c-8 -12 -31 -56 -52 -97 -42 -84 -42 -93 -6 -285 11 -55 29 -154 41 -220 11 -66 27 -151 35 -190 8 -38 24 -126 35 -195 12 -69 31 -170 41 -225 11 -55 26 -136 34 -180 8 -44 23 -127 34 -185 11 -58 23 -127 27 -155 7 -51 27 -79 156 -217 l44 -48 566 0 c525 0 566 1 580 17 9 10 36 58 60 108 38 76 44 95 36 120 -5 17 -15 68 -22 115 -8 47 -24 137 -36 200 -12 63 -24 129 -27 145 -2 17 -11 66 -20 110 -34 182 -54 294 -63 355 -6 36 -17 91 -25 123 -8 32 -15 70 -15 84 0 14 -8 64 -19 112 -10 47 -29 141 -42 208 l-23 122 -89 100 -90 101 -572 0 -573 0 -15 -23z m859 -693 c12 -60 32 -163 44 -229 45 -254 61 -342 72 -391 6 -29 8 -57 4 -63 -5 -7 -53 -11 -141 -11 -153 0 -135 -12 -155 105 -5 33 -19 110 -30 170 -11 61 -27 151 -35 200 -8 50 -19 108 -24 130 -17 71 -33 184 -28 192 3 4 65 7 138 7 l134 -2 21 -108z"/><path id="p14MJEZYUv" d="M18695 2570 c-3 -5 -3 -14 0 -20 3 -5 15 -58 25 -117 10 -60 28 -157 40 -218 19 -104 45 -243 76 -415 7 -41 25 -136 39 -210 14 -74 30 -162 36 -195 5 -33 16 -91 24 -130 8 -38 23 -119 34 -180 61 -325 57 -314 105 -369 90 -103 131 -145 146 -147 8 -1 461 -1 1007 0 l991 1 52 102 c52 100 53 103 41 147 -6 25 -15 75 -20 111 -6 36 -17 99 -25 140 -15 75 -40 210 -77 415 -11 61 -24 133 -29 160 -13 66 -38 209 -55 314 -8 46 -18 104 -24 130 -15 67 -40 206 -52 281 -5 36 -18 97 -27 135 l-18 70 -279 3 c-153 1 -282 -1 -286 -5 -3 -5 2 -51 12 -103 11 -52 28 -142 39 -200 17 -95 29 -160 75 -415 8 -44 23 -127 34 -185 11 -58 29 -161 41 -230 12 -69 29 -154 36 -189 8 -36 11 -68 6 -73 -5 -5 -69 -7 -143 -6 l-133 3 -18 100 c-10 55 -24 136 -32 180 -20 117 -45 250 -62 330 -8 39 -18 97 -23 130 -6 33 -19 110 -30 170 -33 172 -62 334 -72 400 -16 106 17 95 -303 95 -155 0 -285 -2 -287 -5 -5 -5 -1 -30 39 -250 12 -60 30 -161 41 -222 12 -62 30 -164 42 -225 11 -62 29 -162 41 -223 21 -116 53 -289 68 -365 5 -25 9 -62 9 -82 l1 -38 -129 0 c-89 0 -132 4 -137 12 -8 13 -15 45 -43 198 -11 58 -29 155 -41 215 -12 61 -28 150 -35 199 -8 49 -19 103 -24 120 -5 17 -13 56 -16 86 -4 30 -13 80 -20 110 -7 30 -16 80 -20 110 -4 30 -13 80 -20 110 -8 30 -18 87 -23 125 -6 39 -15 82 -21 98 l-11 27 -279 0 c-176 0 -282 -4 -286 -10z"/><path id="phuA17KrN" d="M1460 1339 c0 -17 7 -58 15 -90 9 -33 13 -64 10 -69 -4 -6 -169 -10 -430 -10 l-423 0 -196 -295 c-108 -162 -196 -299 -196 -305 0 -12 1768 -14 1787 -2 7 4 36 50 64 102 l52 95 -17 95 c-10 52 -26 136 -36 185 -10 50 -21 110 -24 135 -3 25 -13 78 -22 118 l-16 72 -284 0 -284 0 0 -31z"/></g></g></svg>